/* XPM */
static char *result[] = {
/* columns rows colors chars-per-pixel */
"50 50 5 1 ",
"  c #4F5670",
". c #636B85",
"X c #72788C",
"o c #838BA9",
"O c #9BA3BE",
/* pixels */
"..................................................",
".........XX....XXXXXXXX.XX.XXXXXXXX....XX.........",
".....oooXooooooXooooooooooooooooooXooooooXooo.....",
"...XooooooooooooooooooooooooooooooooooooooooooX...",
"..XXooooooooooooooooooooooooooooooooooooooooooXX..",
"..oooooooooooooooooooooooooooooooooooooooooooooo..",
"..oooooooooooooooooooooooooooooooooooooooooooooo..",
"..oooooooooooooooooooooooooooooooooooooooooooooo..",
".XooooooooooooooooooooooooooooooooooooooooooooooX.",
".XXooooooooooooooooooooooooooooooooooooooooooooXX.",
"..XooooooooooooooooooooooooooooooooooooooooooooX..",
"..XooooooooooooooooooooooooooooooooooooooooooooX..",
"..oooooooooooooooooooooooooooooooooooooooooooooo..",
".XooooooooooooooooooooooooooooooooooooooooooooooX.",
".XooooooooooooooooooooooooooooooooooooooooooooooX.",
".Xooo         oo   oooooo   oo   oo           ooX.",
".Xooo         oo    oooo    oo   oo           ooX.",
".Xooo         oo    oooo    oo   oo           ooX.",
".Xooo    oooooooo    OO    OOOOOooooooo   ooooooX.",
".Xooo   oooooOOOO    OO    OOO   OOOooo   ooooooX.",
"..ooo   ooOOOOOOOO        OOOO   OOOOOO   oooooo..",
"..ooo    OOOOOOOOO        OOOO   OOOOOO   oooooo..",
"..ooo         OOOOO      OOOOO   OOOOOO   oooooo..",
"..ooo         OOOOO      OOOOO   OOOOOO   oooooo..",
".Xooo         OOOOOO    OOOOOO   OOOOOO   ooooooX.",
".Xooo    OOOOOOOOOO      OOOOO   OOOOOO   ooooooX.",
".XXoo   OOOOOOOOOOO      OOOOO   OOOOOO   oooooXX.",
"..Xoo   ooOOOOOOOO        OOOO   OOOOOO   oooooX..",
"..ooo    ooooOOOOO        OOOO   OOOooo   oooooo..",
"..ooo         ooo    OO    OOO   oooooo   oooooo..",
".Xooo         ooo    oo    ooo   oooooo   ooooooX.",
".Xooo         ooo   oooo   ooo   oooooo   ooooooX.",
".XooooooooooooooooooooooooooooooooooooooooooooooX.",
"..oooooooooooooooooooooooooooooooooooooooooooooo..",
"..oooooooooooooooooooooooooooooooooooooooooooooo..",
".XXooooooooooooooooooooooooooooooooooooooooooooXX.",
".XooooooooooooooooooooooooooooooooooooooooooooooX.",
"..oooooooooooooooooooooooooooooooooooooooooooooo..",
"..oooooooooooooooooooooooooooooooooooooooooooooo..",
"..XooooooooooooooooooooooooooooooooooooooooooooX..",
"..XooooooooooooooooooooooooooooooooooooooooooooX..",
"..XooooooooooooooooooooooooooooooooooooooooooooX..",
"..oooooooooooooooooooooooooooooooooooooooooooooo..",
"..oooooooooooooooooooooooooooooooooooooooooooooo..",
"..XooooooooooooooooooooooooooooooooooooooooooooX..",
"..XooooooooooooooooooooooooooooooooooooooooooooX..",
"....oooooooooooooooooooooooooooooooooooooooooo....",
".....XXoooXXoXXXooXXooooooooooXXooXXXoXXoooXX.....",
".....X...........XX............XX...........X.....",
".................................................."
};
