/* XPM */
static char *result[] = {
/* columns rows colors chars-per-pixel */
"50 50 187 2 ",
"   c #322E09",
".  c #332D0B",
"X  c #322E0B",
"o  c #322B0F",
"O  c #332D0D",
"+  c #312C0E",
"@  c #332C0F",
"#  c #322D0F",
"$  c #362D0C",
"%  c #352C0F",
"&  c #332C10",
"*  c #342D10",
"=  c #4B3F17",
"-  c #4A3D1B",
";  c #483E1A",
":  c #493E1E",
">  c #4C3F1C",
",  c #4C420F",
"<  c #494017",
"1  c #4A4116",
"2  c #4B4217",
"3  c #4D4117",
"4  c #494019",
"5  c #4A4118",
"6  c #4B4219",
"7  c #4A411A",
"8  c #4B421B",
"9  c #4C4018",
"0  c #4C431A",
"q  c #4A401C",
"w  c #4B411D",
"e  c #61671D",
"r  c #61671F",
"t  c #626919",
"y  c #61681B",
"u  c #62691B",
"i  c #64681B",
"p  c #62691C",
"a  c #64681C",
"s  c #64681E",
"d  c #4B4022",
"f  c #5E5228",
"g  c #605326",
"h  c #605327",
"j  c #615428",
"k  c #60542A",
"l  c #61542A",
"z  c #506522",
"x  c #526525",
"c  c #516526",
"v  c #506427",
"b  c #526426",
"n  c #526726",
"m  c #516329",
"M  c #51622B",
"N  c #50632B",
"B  c #516528",
"V  c #526428",
"C  c #536529",
"Z  c #526629",
"A  c #51652A",
"S  c #52642A",
"D  c #53652B",
"F  c #50612D",
"G  c #52632C",
"H  c #52632D",
"J  c #51632F",
"K  c #51642C",
"L  c #51642D",
"P  c #506230",
"I  c #526231",
"U  c #546531",
"Y  c #616721",
"T  c #626820",
"R  c #636923",
"E  c #636825",
"W  c #667B2C",
"Q  c #667B2E",
"!  c #677C2F",
"~  c #767A23",
"^  c #757925",
"/  c #777B24",
"(  c #767A26",
")  c #777B26",
"_  c #767B27",
"`  c #777B27",
"'  c #787D21",
"]  c #787A26",
"[  c #787C25",
"{  c #797C25",
"}  c #797E24",
"|  c #787C27",
" . c #767928",
".. c #777A29",
"X. c #767B29",
"o. c #787929",
"O. c #787C28",
"+. c #787B2E",
"@. c #657931",
"#. c #667B30",
"$. c #657932",
"%. c #657B33",
"&. c #667A32",
"*. c #667A33",
"=. c #677B33",
"-. c #667C31",
";. c #677C31",
":. c #657934",
">. c #667937",
",. c #687D32",
"<. c #768F3B",
"1. c #778F3B",
"2. c #768F3C",
"3. c #768F3E",
"4. c #788F3D",
"5. c #779136",
"6. c #769037",
"7. c #779138",
"8. c #759238",
"9. c #77913A",
"0. c #74903C",
"q. c #77903C",
"w. c #77903D",
"e. c #77933C",
"r. c #76923D",
"t. c #76923E",
"y. c #789239",
"u. c #78903A",
"i. c #78923B",
"p. c #78903C",
"a. c #78913D",
"s. c #79913D",
"d. c #78913E",
"f. c #79923E",
"g. c #768E42",
"h. c #788F41",
"j. c #768C4C",
"k. c #769142",
"l. c #799040",
"z. c #789042",
"x. c #878E24",
"c. c #888F25",
"v. c #898E27",
"b. c #888F27",
"n. c #83862F",
"m. c #848829",
"M. c #878F28",
"N. c #83882C",
"B. c #83882E",
"V. c #888F28",
"C. c #888E2A",
"Z. c #879025",
"A. c #899028",
"S. c #91962F",
"D. c #90972F",
"F. c #91992C",
"G. c #91982E",
"H. c #838730",
"J. c #828631",
"K. c #838532",
"L. c #848632",
"P. c #838434",
"I. c #919735",
"U. c #909537",
"Y. c #919830",
"T. c #909831",
"R. c #919831",
"E. c #909833",
"W. c #91953E",
"Q. c #9DA432",
"!. c #9DA434",
"~. c #ADB53C",
"^. c #ADB53E",
"/. c #8EAD45",
"(. c #8FAF44",
"). c #8EAD46",
"_. c #8FAE46",
"`. c #8EAF46",
"'. c #8FAE47",
"]. c #8FAD49",
"[. c #8EAC4A",
"{. c #90AC45",
"}. c #91AE44",
"|. c #91AD47",
" X c #90AC48",
".X c #ADB440",
"XX c None",
/* pixels */
"XXXXXXXXXXXXXXXXXXXXXXXXXXXXXXXXXXXXXXXXXXXXXXXXXXXXXXXXXXXXXXXXXXXXXXXXXXXXXXXXXXXXXXXXXXXXXXXXXXXX",
"XXXXXXXXXXXXXXXXXXXXXXXXXXXXXXXXXXXXXXXXXXXXXXXXXXXXXXXXXXXXXXXXXXXXXXXXXXXXXXXXXXXXXXXXXXXXXXXXXXXX",
"XXXXXXXXXXXXXXXXXXXXXXXXXXXXXXXXXXXXXXXXXXXXXXXXXXXXXXXXXXXXXXXXXXXXXXXXXXXXXXXXXXXXXXXXXXXXXXXXXXXX",
"XXXXXXXXXXXXXXXXXXXXXXXXXXXXXXXXXXXXXXXXXXXXXXXXXXXXXXXXXXXXXXXXXXXXXXXXXXXXXXXXXXXXXXXXXXXXXXXXXXXX",
"XXXXXXXXXXXXXXXXXXXXXXXXXXXXXXXXXXXXXXXXXXXXXXXXXXXXXXXXXXXXXXXXXXXXXXXXXXXXXXXXXXXXXXXXXXXXXXXXXXXX",
"XXXXXXXXXXXXXXXXXXXXXXXXXXXXXXXXXXXXXXXXXXXXXXXXXXXXXXXXXXXXXXXXXXXXXXXXXXXXXXXXXXXXXXXXXXXXXXXXXXXX",
"XXXXXXXXXXXXXXXXXXXXXXXXXXXXXXXXs.q.XXXXXXXXXXXXXXXXXXXXXXXXXXXXXXXXXXXXXXXXXXXXXXXXXXXXXXXXXXXXXXXX",
"XXXXXXXXXXXXXXXXXXXXXXXXXXXXXXXX1.3.XXXXXXXXXXXXXXXXXXXXXXXXXXXXXXXXXXXXXXXXXXXXXXXXXXXXXXXXXXXXXXXX",
"XXXXXXXXXXXXXXXXXXXXXXXXXXXXXXXXXXXXl.f.)./.;.,.C D C J XXXXXXXXXXXXXXXXXXXXXXXXXXXXXXXXXXXXXXXXXXXX",
"XXXXXXXXXXXXXXXXXXXXXXXXXXXXXXXXXXXXu.9.'.`.&.&.b V S B XXXXXXXXXXXXXXXXXXXXXXXXXXXXXXXXXXXXXXXXXXXX",
"XXXXXXXXXXXXXXXXXXXXXXXXXXXXXXXXXXXXXXXXy.w.(._.W Q b b c H XXXXXXXXXXXXXXXXXXXXXXXXXXXXXXXXXXXXXXXX",
"XXXXXXXXXXXXXXXXXXXXXXXXXXXXXXXXXXXXXXXXj.6.(.'.! &.V b V B XXXXXXXXXXXXXXXXXXXXXXXXXXXXXXXXXXXXXXXX",
"XXXXXXXXXXXXXXXXXXXXXXXXXXXXXXXXXXXXXXXXXXXXw.9.9.7.#.#.b V Z J XXXXXXXXXXXXXXXXXXXXXXXXXXXXXXXXXXXX",
"XXXXXXXXXXXXXXXXXXXXXXXXXXXXXXXXXXXXXXXXXXXX4.p.9.9.#.#.V x b S XXXXXXXXXXXXXXXXXXXXXXXXXXXXXXXXXXXX",
"XXXXXXXXXXXXXXXXXXXXq.3.XXXXXXXXXXXXXXXXXXXXXXXXr.p.#.#.#.#.b S XXXXXXXXXXXXXXXX8 1 X @ XXXXXXXXXXXX",
"XXXXXXXXXXXXXXXXXXXX2.g.XXXXXXXXXXXXXXXXXXXXXXXX3.0.@.$.#.#.b S XXXXXXXXXXXXXXXX8 5 + o XXXXXXXXXXXX",
"XXXXXXXXXXXXXXXXXXXXXXXXd.a.{. X! ;.D J XXXXXXXXXXXXXXXX=.#.b S XXXXXXXXXXXX8 8 O . XXXXXXXXXXXXXXXX",
"XXXXXXXXXXXXXXXXXXXXXXXXd.q.}.|.#.&.V c XXXXXXXXXXXXXXXX! #.b S XXXXXXXXXXXX1 5 . . XXXXXXXXXXXXXXXX",
"XXXXXXXXXXXXXXXXXXXXXXXXXXXXq.q.8.8.#.*.J H XXXXXXXXXXXXXXXXXXXXU G XXXXXXXX  # XXXXXXXXXXXXXXXXXXXX",
"XXXXXXXXXXXXXXXXXXXXXXXXXXXX2.<.7.q.&.#.b A XXXXXXXXXXXXXXXXXXXXZ B XXXXXXXXO @ XXXXXXXXXXXXXXXXXXXX",
"XXXXXXXXXXXXXXXXXXXXXXXXXXXXXXXXz.7.9.5.#.&.n L XXXXXXXXXXXXXXXX6 9 * * * $ O @ XXXXXXXXXXXXXXXXXXXX",
"XXXXXXXXXXXXXXXXXXXXXXXXXXXXXXXXt.w.h.w.>.%.b S XXXXXXXXXXXXXXXXw 7 & O % O @ & XXXXXXXXXXXXXXXXXXXX",
"XXXXXXXXXXXXXXXXXXXXXXXXXXXXXXXXXXXXXXXXXXXXV G XXXXXXXX3 5 5 4 XXXXt e XXXXXXXXXXXXXXXXXXXXXXXXXXXX",
"XXXXXXXXXXXXXXXXXXXXXXXXXXXXXXXXXXXXXXXXXXXXM F XXXXXXXX> 4 4 ; XXXXu y XXXXXXXXXXXXXXXXXXXXXXXXXXXX",
"XXXXXXXXXXXXXXXXXXXXXXXXXXXXXXXXXXXXXXXXXXXXXXXX0 8 8 > XXXXXXXX} | ) ) R E XXXXXXXXXXXXXXXXXXXXXXXX",
"XXXXXXXXXXXXXXXXXXXXXXXXXXXXXXXXXXXXXXXXXXXXXXXX2 5 5 < XXXXXXXX| / ) ) t T XXXXXXXXXXXXXXXXXXXXXXXX",
"XXXXXXXXXXXXXXXXXXXXXXXXXXXXXXXXk k l k q q q : XXXXXXXXXXXXE.T.Y.Y.H.N.) ] T Y XXXXXXXXXXXXXXXXXXXX",
"XXXXXXXXXXXXXXXXXXXXXXXXXXXXXXXXj h g f , d = - XXXXXXXXXXXXR.R.R.R.H.B.) ) u r XXXXXXXXXXXXXXXXXXXX",
"XXXXXXXXXXXXXXXX[.[.k.e.=.-.Z K XXXXXXXX+...XXXXXXXXXXXXW.S.Q.Q.Q.!.R.Y.B.N./ ) { { XXXXXXXXXXXXXXXX",
"XXXXXXXXXXXXXXXX/.'.8.7.#.&.G I XXXXXXXX' ..XXXXXXXXXXXXS.R.!.!.!.!.Y.Y.B.B.) ) ) ) XXXXXXXXXXXXXXXX",
"XXXXXXXXXXXX_.'.9.9.#.Q x K XXXXXXXXM.b.) o.XXXXXXXXXXXXS.Y..X.X!.!.Y.Y.B.B.) ) ) ) XXXXXXXXXXXXXXXX",
"XXXXXXXXXXXX'.].i.9.#.#.M P XXXXXXXXZ.b.) ] XXXXXXXXXXXXS.Y..X.X!.!.Y.Y.B.B.) ) ) ) XXXXXXXXXXXXXXXX",
"XXXXXXXXXXXX9.i.#.#.b v XXXXXXXXR.D.Y.Y.b.C.[ O.XXXXXXXXS.Y..X.X!.!.Y.Y.B.B.) ) ) / XXXXXXXXXXXXXXXX",
"XXXXXXXXXXXX9.9.#.#.V K XXXXXXXXD.F.Y.Y.b.V./ ( XXXXXXXXS.Y..X.X!.!.Y.Y.B.B.) ) ) / XXXXXXXXXXXXXXXX",
"XXXXXXXXXXXX9.9.#.#.V K XXXXv.v.R.G.Q.Q.Y.R.N.H._ X.XXXXS.R.!.!.Y.Y.Y.Y.B.B.) ) ) ) XXXXXXXXXXXXXXXX",
"XXXXXXXXXXXX7.q.Q &.N z XXXXb.b.Y.Y.!.Q.Y.R.B.B.) ) XXXXS.R.Q.Q.Y.Y.G.Y.B.B.) ) ` / XXXXXXXXXXXXXXXX",
"XXXXXXXXXXXX7.q.x x XXXXXXXXb.b.Y.Y..X^.R.R.B.B.) ) XXXXS.Y.R.R.Y.Y.H.B.B.B.) ) t p XXXXXXXXXXXXXXXX",
"XXXXXXXXXXXX8.8.b S XXXXXXXXb.b.Y.Y.~.^.R.R.B.B.) ) XXXXU.I.R.R.R.R.B.B.B.N.) ) s a XXXXXXXXXXXXXXXX",
"XXXXXXXXXXXX#.#.b S XXXXXXXXc.c.Y.Y.Y.Y.b.b.B.B./ ) XXXXXXXXB.B.B.B.B.B.) ) u u XXXXXXXXXXXXXXXXXXXX",
"XXXXXXXXXXXX#.#.m M XXXXXXXXC.C.Y.Y.Y.Y.b.b.B.B.^  .XXXXXXXXJ.J.B.B.B.B.) ) y p XXXXXXXXXXXXXXXXXXXX",
"XXXXXXXXXXXX#.$.XXXXXXXXXXXXXXXXx.c.b.b.B.B./ ~ XXXXXXXXXXXXXXXX[ ) ) ) u s XXXXXXXXXXXXXXXXXXXXXXXX",
"XXXXXXXXXXXX&.:.XXXXXXXXXXXXXXXXA.c.V.b.B.B.) ( XXXXXXXXXXXXXXXX| ` ) / p i XXXXXXXXXXXXXXXXXXXXXXXX",
"XXXXXXXXXXXXXXXXXXXXXXXXXXXXXXXXXXXXm.H.B.L.XXXXXXXXXXXXXXXXXXXXXXXXXXXXXXXXXXXXXXXXXXXXXXXXXXXXXXXX",
"XXXXXXXXXXXXXXXXXXXXXXXXXXXXXXXXXXXXK.n.n.P.XXXXXXXXXXXXXXXXXXXXXXXXXXXXXXXXXXXXXXXXXXXXXXXXXXXXXXXX",
"XXXXXXXXXXXXXXXXXXXXXXXXXXXXXXXXXXXXXXXXXXXXXXXXXXXXXXXXXXXXXXXXXXXXXXXXXXXXXXXXXXXXXXXXXXXXXXXXXXXX",
"XXXXXXXXXXXXXXXXXXXXXXXXXXXXXXXXXXXXXXXXXXXXXXXXXXXXXXXXXXXXXXXXXXXXXXXXXXXXXXXXXXXXXXXXXXXXXXXXXXXX",
"XXXXXXXXXXXXXXXXXXXXXXXXXXXXXXXXXXXXXXXXXXXXXXXXXXXXXXXXXXXXXXXXXXXXXXXXXXXXXXXXXXXXXXXXXXXXXXXXXXXX",
"XXXXXXXXXXXXXXXXXXXXXXXXXXXXXXXXXXXXXXXXXXXXXXXXXXXXXXXXXXXXXXXXXXXXXXXXXXXXXXXXXXXXXXXXXXXXXXXXXXXX",
"XXXXXXXXXXXXXXXXXXXXXXXXXXXXXXXXXXXXXXXXXXXXXXXXXXXXXXXXXXXXXXXXXXXXXXXXXXXXXXXXXXXXXXXXXXXXXXXXXXXX",
"XXXXXXXXXXXXXXXXXXXXXXXXXXXXXXXXXXXXXXXXXXXXXXXXXXXXXXXXXXXXXXXXXXXXXXXXXXXXXXXXXXXXXXXXXXXXXXXXXXXX"
};
