/* XPM */
static char *result[] = {
/* columns rows colors chars-per-pixel */
"50 50 14 2",
"aa c None",
"ab c #231c19",
"ac c #352b26",
"ad c #95d836",
"ae c #d89e58",
"af c #f3cf95",
"ag c #4dbd27",
"ah c #b66b3a",
"ai c #e2cfa4",
"aj c #67332d",
"ak c #0a7030",
"al c #c3aa83",
"am c #997d57",
"an c #03991f",
"aaaaababababababababababababaaaaaaaaabababababababababababababaaaaaaacacacacacacacacacacacacaaaaaaaa",
"aaabadadadadadadadadadadadadabaaaaabaeaeaeaeaeaeaeabababaeaeaeabaaacafafafafafafafafafafafafacaaaaac",
"abadadadadadagagagagadagadadadababaeahahaeahahahahaeabaeahahaeabacafafafafafaeaeaeaeafaeafafafacacai",
"abadagadadadagadagagagagagadadababaeahahahahajahahajabaeahajajabacafaeafafafaeafaeaeaeaeaeafafacacai",
"abadagadadadagagagakakagagagadababaeahajajahahahajababaeajajababacafaeafafafaeaeaeahahaeaeaeafacacai",
"abakagagagagagagagakakagagagakababaeahajajahahajajabababababababacahaeaeaeaeaeaeaeahahaeaeaeahacacai",
"abakakagagagakagagagagagagakakabababajajajajajajababaeaeaeaeaeabacahahaeaeaeahaeaeaeaeaeaeahahacacac",
"ababakakakakakakakakakakakakabababababababababababaeahahaeahaeabacacahahahahahahahahahahahahacacacac",
"ababababababababababababababababababaeaeaeabababaeahaeahahahajabacacacacacacacacacacacacacacacacacac",
"abahajajajajajajajajajajajajahababaeahajahaeabaeahahahahajajajabacalamamamamamamamamamamamamalacacai",
"abaeahaeahahahahahahahahahaeaeababaeahahahajabaeaeaeahahajajajabacaialaialalalalalalalalalaiaiacacai",
"abaeahahahahahahahajajahahahaeababaeaeaeahajabaeaeaeahahahahajabacaialalalalalalalamamalalalaiacacai",
"abaeahahajajahahahajajahajahaeababaeaeaeahajabaeahahahajahajajabacaialalamamalalalamamalamalaiacacai",
"abajahahajajahahahahahahahahajababaeahahajajabaeahahahahajajajabacamalalamamalalalalalalalalamacacai",
"aaabajajajajajajajajajajajajabaaabaeajajajababajajajajajajajabaaaaacamamamamamamamamamamamamacaaacai",
"aaaaababababababababababababaaaaaaabababababababababababababaaaaaaaaacacacacacacacacacacacacaaaaaaac",
"aaaaababababababababababababaaaaaaaaababababababababababababaaaaaaaaacacacacacacacacacacacacaaaaaaaa",
"aaabaeaeaeaeaeaeaeaeaeaeaeaeabaaaaabaeaeaeaeaeabababaeaeaeaeabaaaaacaiaiaiaiaiaiaiaiaiaiaiaiacaaaaac",
"abaeaeaeahaeaeaeahahahahaeaeaeababaeahahaeaeahaeabaeahaeaeahaeabacaiaiaialaiaiaialalalalaiaiaiacacai",
"abaeaeahahaeaeaeahahahahahaeaeababaeaeahaeaeahajabaeahaeaeahajabacaiaialalaiaiaialalalalalaiaiacacai",
"abaeahahahaeaeaeahaeaeahahahaeababaeahahahahahajabaeahahahahajabacaialalalaiaiaialaiaialalalaiacacai",
"abaeahaeahahahahahaeaeahahahaeababaeahajajahahajababaeahahajajabacaialaialalalalalaiaialalalaiacacai",
"abaeahahahahahahahahahahahahaeababaeahajajahahahajababajajajababacaialalalalalalalalalalalalaiacacai",
"abaeahahajajahahahahahahaeahaeababaeahahahahajahajabababababababacaialalamamalalalalalalaialaiacacai",
"abajahahajajahaeaeahahahahahajabababajajajajajajabababaeaeaeababacamalalamamalaiaialalalalalamacacac",
"abajahahahahahaeaeahahahahahajabababababababababababaeahahahaeabacamalalalalalaiaialalalalalamacacac",
"abajahajahahahahahahahahahajajabababaeaeaeaeaeabababaeahajajajabacamalamalalalalalalalalalamamacacac",
"abajahahahahahahahajajahahahajababaeahaeaeahahaeababaeahajajajabacamalalalalalalalamamalalalamacacai",
"abajahahajajahahahajajahajahajababaeahaeaeahajajabaeahahahahajabacamalalamamalalalamamalamalamacacai",
"abajahahajajahahahahahahahahajababaeahahahahahajabaeahaeahajajabacamalalamamalalalalalalalalamacacai",
"aaabajajajajajajajajajajajajabaaaaabajajajajajabababajajajajabaaaaacamamamamamamamamamamamamacaaaaac",
"aaaaababababababababababababaaaaaaaaababababababababababababaaaaaaaaacacacacacacacacacacacacaaaaaaaa",
"aaaaababababababababababababaaaaaaaaababababababababababababaaaaaaaaacacacacacacacacacacacacaaaaaaaa",
"aaabaeaeaeaeaeaeaeaeaeaeaeaeabaaaaabaeaeaeaeaeaeaeaeaeaeaeaeabaaaaacafafafafafafafafafafafafacaaaaab",
"abaeaeaeahabababababahahaeaeaeababaeaeaeahahahababahahahaeaeaeabacafaeafafaeaeaeafaeaeaeaeaeafacacai",
"abaeaeahabajajajajajabahahaeaeababaeaeahahahabajajabahahahaeaeabacaeaeafafaeaeaeaeaeaeahahaeaeacacai",
"abaeahabajajajabajajajabahahaeababaeahahahahabajajabahahahahaeabacaeaeaeaeaeaeahahaeaeahahaeaeacacai",
"abaeahabajajabahabajajabahahaeababaeahahahahabajajabahahahahaeabacahaeaeahaeahajajahaeaeaeaeahacacai",
"abaeahabajajabahabajajabahahaeababaeahahahahabajajabahahahahaeabacajahahahahacacacacahahahahajacacai",
"abaeahahababahabajajajabahahaeababaeahahahahabajajabahahahahaeabacacajajajacalalalalacajajajacacacai",
"abajahahahahabajajajabahahahajababajahahahahahababahahahahahajabacamacacacalalamalalalacacacamacacam",
"abajahahahahabajajabahahahahajababajahahahahahahahahahahahahajabacamalalalalalalalalamamalalamacacam",
"abajahahahahahababahahahahahajababajahahahahahababahahahahahajabacamalamamamalalalalamamalalamacacam",
"abajahahahahabajajabahahahahajababajahahahahabajajabahahahahajabacamalamamamalalalalalalalalamacacam",
"abajahahahahabajajabahahahahajababajahahahahabajajabahahahahajabacamalamamamalamamalalamalalamacacam",
"abajajahahahahababahahahahajajababajajahahahahababahahahahajajabacamalalalalalamamalalalalamamacacam",
"aaabajajajajajajajajajajajajabaaaaabajajajajajajajajajajajajabaaaaacamamamamamamamamamamamamacaaaaac",
"aaaaababababababababababababaaaaaaaaababababababababababababaaaaaaaaacacacacacacacacacacacacaaaaaaaa",
"aaaaaaababababababababababaaaaaaaaaaaaaaaaababababababaaaaaaaaaaaaaaacacacacacacacacacacacacaaaaaaaa",
"aaaaabananananananananananabaaaaaaaaaaababananananananababaaaaaaaaabaiaiaiaiaiaiaiaiaiaiaiaiabaaaaaa"
};