/* XPM */
static char *result[] = {
/* columns rows colors chars-per-pixel */
"50 50 5 1 ",
"  c #242B33",
". c #3D4857",
"X c #636B85",
"o c #AEB4CE",
"O c None",
/* pixels */
"OOOOOO                                         OOO",
"OOOOOO                                         OOO",
"OOOOOO                                         OOO",
"OOO   oooooooooooooooooooooo         oooooooooo   ",
"OOO   oooooooooooooooooooooo         oooooooooo   ",
"OOO   oooooooooooooooooooooo         oooooooooo   ",
"   oooXXXXXXooooXXXXXXXXXXXX...   oooXXXXXXX...   ",
"   oooXXXXXXooooXXXXXXXXXXXX...   oooXXXXXXX...   ",
"   oooXXXXXXooooXXXXXXXXXXXX...   oooXXXXXXX...   ",
"   oooXXXXXXXXXXXXX...XXXXXX...   oooXXXX......   ",
"   oooXXXXXXXXXXXXX...XXXXXX...   oooXXXX......   ",
"   oooXXXXXXXXXXXXX...XXXXXX...   oooXXXX......   ",
"   oooXXX.......XXXXXXXXX...      ooo.......      ",
"   oooXXX.......XXXXXXXXX...      ooo.......      ",
"   oooXXX.......XXXXXXXXX...      ooo.......      ",
"   oooXXX.......XXXXXXXXX...      ooo.......      ",
"   oooXXX.......XXXXXX......                      ",
"   oooXXX.......XXXXXX......                      ",
"   oooXXX.......XXXXXX......                      ",
"      ...................      oooooooooooooooo   ",
"      ...................      oooooooooooooooo   ",
"      ...................      oooooooooooooooo   ",
"                            oooXXXXXXooooXXX...   ",
"                            oooXXXXXXooooXXX...   ",
"                            oooXXXXXXooooXXX...   ",
"      oooooooooo         oooXXXoooXXXXXXXXXX...   ",
"      oooooooooo         oooXXXoooXXXXXXXXXX...   ",
"      oooooooooo         oooXXXoooXXXXXXXXXX...   ",
"   oooXXX...XXXX...   oooXXXXXXXXXXXX..........   ",
"   oooXXX...XXXX...   oooXXXXXXXXXXXX..........   ",
"   oooXXX...XXXX...   oooXXXXXXXXXXXX..........   ",
"   oooXXXXXXXXXX...   oooooooooXXXXXX..........   ",
"   oooXXXXXXXXXX...   oooooooooXXXXXX..........   ",
"   oooXXXXXXXXXX...   oooooooooXXXXXX..........   ",
"   oooooooooXXXX...   oooooooooXXXXXXXXXXXXX...   ",
"   oooooooooXXXX...   oooooooooXXXXXXXXXXXXX...   ",
"   oooooooooXXXX...   oooooooooXXXXXXXXXXXXX...   ",
"   oooooooooXXXX...   oooXXXXXXXXX...XXXX......   ",
"   oooooooooXXXX...   oooXXXXXXXXX...XXXX......   ",
"   oooooooooXXXX...   oooXXXXXXXXX...XXXX......   ",
"   oooooooooXXXX...   oooXXXXXXXXX...XXXX......   ",
"   oooXXXXXX.......   oooXXXXXXXXXXXX..........   ",
"   oooXXXXXX.......   oooXXXXXXXXXXXX..........   ",
"   oooXXXXXX.......   oooXXXXXXXXXXXX..........   ",
"   ooo..........      ......................   OOO",
"   ooo..........      ......................   OOO",
"   ooo..........      ......................   OOO",
"OOO                                         OOOOOO",
"OOO                                         OOOOOO",
"OOO                                         OOOOOO"
};
