/* XPM */
static char *result[] = {
/* columns rows colors chars-per-pixel */
"50 50 11 1",
"  c None",
"a c #141b1b",
"b c #ddcebf",
"c c #886e6a",
"d c #f1ebdb",
"e c #3d2936",
"f c #a3a7c2",
"g c #494182",
"h c #f5ffe8",
"i c #7864c6",
"j c #bda499",
"                                                  ",
"                                                  ",
"                                                  ",
"                                                  ",
"                                                  ",
"                                                  ",
"            aaaa                  aaa             ",
"            aaaa                  aaa             ",
"            aaaa                  aaa             ",
"         aaabbbbaaa            aaabbbaaaa         ",
"         aaabbbbaaa            aaabbbaaaa         ",
"         aaabbbbaaa            aaabbbaaaa         ",
"      aaacccbbbbaaaaaaaaaaaaaaaaaabbbccccaaa      ",
"      aaacccbbbbaaaaaaaaaaaaaaaaaabbbccccaaa      ",
"      aaacccbbbbaaaaaaaaaaaaaaaaaabbbccccaaa      ",
"      aaacccbbbbaaaaaaaaaaaaaaaaaabbbccccaaa      ",
"      aaacccbbbbddddddddddddddddddbbbccccaaa      ",
"      aaacccbbbbddddddddddddddddddbbbccccaaa      ",
"      aaacccbbbbddddddddddddddddddbbbccccaaa      ",
"      aaabbbbbbbbbbddddddddddddbbbbbbbbbbaaa      ",
"      aaabbbbbbbbbbddddddddddddbbbbbbbbbbaaa      ",
"      aaabbbbbbbbbbddddddddddddbbbbbbbbbbaaa      ",
"      aaabbbbbbbbbbbbbbbbbbbbbbbbbbbbbbbbaaa      ",
"      aaabbbbbbbbbbbbbbbbbbbbbbbbbbbbbbbbaaa      ",
"      aaabbbbbbbbbbbbbbbbbbbbbbbbbbbbbbbbaaa      ",
"   aaabbbbbbeeeeeeeeeebbbbbbeeeeeeeeebbbbbbbaaa   ",
"   aaabbbbbbeeeeeeeeeebbbbbbeeeeeeeeebbbbbbbaaa   ",
"   aaabbbbbbeeeeeeeeeebbbbbbeeeeeeeeebbbbbbbaaa   ",
"   aaabbbbbbffffggggggbbbbbbggggggfffbbbbbbbaaa   ",
"   aaabbbbbbffffggggggbbbbbbggggggfffbbbbbbbaaa   ",
"   aaabbbbbbffffggggggbbbbbbggggggfffbbbbbbbaaa   ",
"   aaabbbbbbhhhhiiiiiibbbbbbiiiiiihhhbbbbbbbaaa   ",
"   aaabbbbbbhhhhiiiiiibbbbbbiiiiiihhhbbbbbbbaaa   ",
"   aaabbbbbbhhhhiiiiiibbbbbbiiiiiihhhbbbbbbbaaa   ",
"      aaabbbbbbbbbbbbbccccccbbbbbbbbbbbbbaaa      ",
"      aaabbbbbbbbbbbbbccccccbbbbbbbbbbbbbaaa      ",
"      aaabbbbbbbbbbbbbccccccbbbbbbbbbbbbbaaa      ",
"      aaaaaaccccbbbbbbbbbbbbbbbbbbcccaaaaaaa      ",
"      aaaaaaccccbbbbbbbbbbbbbbbbbbcccaaaaaaa      ",
"      aaaaaaccccbbbbbbbbbbbbbbbbbbcccaaaaaaa      ",
"      aaaaaaccccbbbbbbbbbbbbbbbbbbcccaaaaaaa      ",
"   aaabbbbbbjjjjccccccccccccccccccjjjbbbbbbbaaa   ",
"   aaabbbbbbjjjjccccccccccccccccccjjjbbbbbbbaaa   ",
"   aaabbbbbbjjjjccccccccccccccccccjjjbbbbbbbaaa   ",
"   aaabbbbbbjjjjjjjjjjaaaaaajjjjjjjjjbbbbbbbaaa   ",
"   aaabbbbbbjjjjjjjjjjaaaaaajjjjjjjjjbbbbbbbaaa   ",
"   aaabbbbbbjjjjjjjjjjaaaaaajjjjjjjjjbbbbbbbaaa   ",
"      aaaaaacccccccaaaaaaaaaaaaccccccaaaaaaa      ",
"      aaaaaacccccccaaaaaaaaaaaaccccccaaaaaaa      ",
"      aaaaaacccccccaaaaaaaaaaaaccccccaaaaaaa      "
};