/* XPM */
static char *result[] = {
/* columns rows colors chars-per-pixel */
"50 50 192 2 ",
"   c #495B6A",
".  c #4A596E",
"X  c #495A6E",
"o  c #4B5A6F",
"O  c #495A73",
"+  c #495B73",
"@  c #5F6F7F",
"#  c #666C7A",
"$  c #626D7F",
"%  c #616E7E",
"&  c #626E7E",
"*  c #808400",
"=  c #918F08",
"-  c #8D9001",
";  c #8D9200",
":  c #8C9102",
">  c #8D9202",
",  c #8C9007",
"<  c #8D9107",
"1  c #8F9404",
"2  c #8D9108",
"3  c #909400",
"4  c #91991A",
"5  c #A1A701",
"6  c #A1A704",
"7  c #A6A606",
"8  c #A3A900",
"9  c #A3A901",
"0  c #A5A800",
"q  c #A5A801",
"w  c #A6A902",
"e  c #A4AA02",
"r  c #A4AA03",
"t  c #A4A905",
"y  c #A5AA06",
"u  c #A6A608",
"i  c #AFB60E",
"p  c #A5AF17",
"a  c #A6AD1A",
"s  c #A7AD1B",
"d  c #A5AE1A",
"f  c #AFB611",
"g  c #AFB513",
"h  c #AFB514",
"j  c #AFB517",
"k  c #AFB419",
"l  c #B0B511",
"z  c #B0B711",
"x  c #B0B513",
"c  c #B0B614",
"v  c #B1B614",
"b  c #B0B615",
"n  c #B3B918",
"m  c #BEC31E",
"M  c #BDC41F",
"N  c #BCC123",
"B  c #BDC323",
"V  c #BEC223",
"C  c #BDC325",
"Z  c #BEC225",
"A  c #BCC327",
"S  c #BEC227",
"D  c #BAC425",
"F  c #BEC425",
"G  c #BDC427",
"H  c #C0C21F",
"J  c #C8CC1D",
"K  c #C6CC20",
"L  c #C5CA26",
"P  c #C7CA26",
"I  c #C6CC24",
"U  c #C8CA20",
"Y  c #C9CB20",
"T  c #CACC23",
"R  c #C8CB24",
"E  c #C8CB25",
"W  c #C8CB26",
"Q  c #C8CC29",
"!  c #C7CB36",
"~  c #D6DA3B",
"^  c #D5DA3F",
"/  c #D6DA3F",
"(  c #D8D93F",
")  c #AE8F68",
"_  c #AF916D",
"`  c #AD906E",
"'  c #B1936E",
"]  c #B1936F",
"[  c #D6D940",
"{  c #D5DA40",
"}  c #E2E550",
"|  c #E1E552",
" . c #E0E553",
".. c #E0E555",
"X. c #636E81",
"o. c #636F81",
"O. c #656E82",
"+. c #6E778C",
"@. c #6D7A8C",
"#. c #6F7C8F",
"$. c #6F7B91",
"%. c #75869A",
"&. c #7B879D",
"*. c #7B889B",
"=. c #8491A4",
"-. c #8490A6",
";. c #8590A6",
":. c #8490A8",
">. c #8E9AAC",
",. c #8E9AB0",
"<. c #909FB4",
"1. c #909EB7",
"2. c #94A2BC",
"3. c #94A2BD",
"4. c #9AA7BD",
"5. c #C8AA84",
"6. c #CAAA85",
"7. c #C8AA86",
"8. c #D7B899",
"9. c #D6B999",
"0. c #D7BD9C",
"q. c #D8B99A",
"w. c #D8BB9B",
"e. c #E5CAAD",
"r. c #E4CBAD",
"t. c #E0CBB0",
"y. c #E2CBB0",
"u. c #9DABC0",
"i. c #B5D8CA",
"p. c #B6DACA",
"a. c #B6DACB",
"s. c #B6D9CD",
"d. c #B6D9CE",
"f. c #BBDFDB",
"g. c #BCE1DA",
"h. c #B8E4DB",
"j. c #BAE1DC",
"k. c #BBE2DC",
"l. c #BBE2DD",
"z. c #BAE3DD",
"x. c #BDE0DC",
"c. c #BDE1DC",
"v. c #BDE1DD",
"b. c #BEE1DD",
"n. c #BEE0DF",
"m. c #BFE2DE",
"M. c #B9E4DC",
"N. c #BCDFE1",
"B. c #BBE2E1",
"V. c #BDE0E2",
"C. c #BAE1E6",
"Z. c #BDE0E4",
"A. c #C0E0DF",
"S. c #C0E3DF",
"D. c #C1E3DF",
"F. c #D5F1DB",
"G. c #D5F1DE",
"H. c #D6F2E0",
"J. c #DAF1E0",
"K. c #DBF4F3",
"L. c #D8F6F2",
"P. c #DAF7F3",
"I. c #DDF7F6",
"U. c #DEF6F6",
"Y. c #D7FAF6",
"T. c #DBF8F3",
"R. c #D9F9F4",
"E. c #DBF8F4",
"W. c #DAF9F4",
"Q. c #DBFAF5",
"!. c #D9F9F6",
"~. c #DAF8F6",
"^. c #DBF8F6",
"/. c #DDF9F5",
"(. c #E4F7E5",
"). c #E6F9E5",
"_. c #E5F8E6",
"`. c #E6F8E6",
"'. c #E6F9E6",
"]. c #E7F9E6",
"[. c #E7F9E7",
"{. c #E9FBE9",
"}. c #E9FBEA",
"|. c #EAFCEB",
" X c #EAFCEC",
".X c #EAFDFD",
"XX c #E9FEFC",
"oX c #EBFFFD",
"OX c #EBFFFE",
"+X c #EEFEFD",
"@X c #ECFEFE",
"#X c None",
/* pixels */
"#X#X#X#X#X#X#X#X#X#X#X#X#X#X#X#X#X#X#X#X#X#X#X#X#X#X#X#X#X#X#X#X#X#X#X#X#X#X#X#X#X#X#X#X#X#X#X#X#X#X",
"#X#X#X#X#X#X#X#X#X#X#X#X#X#X#X#X#X#X#X#X#X#X#X#X#X#X#X#X#X#X#X#X#X#X#X#X#X#X#X#X#X#X#X#X#X#X#X#X#X#X",
"#X#X#X#X#X#X#X#X#X#X#X#X#X#X#X#X#X#X#X#X#X#X#X#X#X#X#X#X#X#X#X#X#X#X#X#X#X#X#X#X#X#X#X#X#X#X#X#X#X#X",
"#X#X#X#X#X#X#X#X#X#X#X#X#X#X#X#X#X#X#X#X#X#X#X#X#X#X#X#X#X#X#X#X#X#X#X#X#X#X#X#X#X#X#X#X#X#X#X#X#X#X",
"#X#X#X#X#X#X#X#X#X#X#X#X#X#X#X#X#X#X#X#X#X#X#X#X#X#X#X#X#X#X#X#X#X#X#X#X#X#X#X#X#X#X#X#X#X#X#X#X#X#X",
"#X#X#X#X#X#X#X#X#X#X#X#X#X#X#X#X#X#X#X#X#X#X#X#X#X#X#X#X#X#X#X#X#X#X#X#X#X#X#X#X#X#X#X#X#X#X#X#X#X#X",
"#X#X#X#X#X#X#X#X#X#X#X#X#X#X#X#X#X#X6.7.t.y.0.q.7.7._ ) #X#X#X#X#X#X#X#X#X#X#X#X#X#X#X#X#X#X#X#X#X#X",
"#X#X#X#X#X#X#X#X#X#X#X#X#X#X#X#X#X#X7.7.e.r.w.8.7.7.] ` #X#X#X#X#X#X#X#X#X#X#X#X#X#X#X#X#X#X#X#X#X#X",
"#X#X#X#X#X#X#X#X#X#X#X#X#X#X#X#X#X#X7.7.r.r.w.9.7.7.] ` #X#X#X#X#X#X#X#X#X#X#X#X#X#X#X#X#X#X#X#X#X#X",
"#X#X#X#X#X#X#X#X#X#X#X#X#X#X#X#X#X#X5.5.e.r.w.9.7.5.' ` #X#X#X#X#X#X#X#X#X#X#X#X#X#X#X#X#X#X#X#X#X#X",
"#X#X#X#X#X#X#X#X#X#X#X#X#X#X#X#X& # $.#.:.;.2.<.$.#.O.$   + #X#X#X#X#X#X#X#X#X#X#X#X#X#X#X#X#X#X#X#X",
"#X#X#X#X#X#X#X#X#X#X#X#X#X#X#X#X$ % #.#.-.-.3.1.#.#.X.$ . o #X#X#X#X#X#X#X#X#X#X#X#X#X#X#X#X#X#X#X#X",
"#X#X#X#X#X#X#X#X#X#X#X#X#X#X#X#X$ $ #.#.=.-.3.1.#.#.o.$ . o #X#X#X#X#X#X#X#X#X#X#X#X#X#X#X#X#X#X#X#X",
"#X#X#X#X#X#X#X#X#X#X#X#X#X#X#X#X% @ %.%.,.>.u.4.&.*.@.+.X O #X#X#X#X#X#X#X#X#X#X#X#X#X#X#X#X#X#X#X#X",
"#X#X#X#X#X#X#X#X#X#X#X#X#X#X#X#X#X#Xb.v.^.E.^.^.E.^.D.A.#X#X#X#X#X#X#X#X#X#X#X#X#X#X#X#X#X#X#X#X#X#X",
"#X#X#X#X#X#X#X#X#X#X#X#X#X#X#X#X#X#Xv.l.~.W.W.W.W.W.S.b.#X#X#X#X#X#X#X#X#X#X#X#X#X#X#X#X#X#X#X#X#X#X",
"#X#X#X#X#X#X#X#X#X#X#X#X#X#X#X#X#X#XL.L..XXXXXXXXXXXP.K.#X#X#X#X#X#X#X#X#X#X#X#X#X#X#X#X#X#X#X#X#X#X",
"#X#X#X#X#X#X#X#X#X#X#X#X#X#X#X#X#X#XE.E.OXoXoXoXoXoX/.!.#X#X#X#X#X#X#X#X#X#X#X#X#X#X#X#X#X#X#X#X#X#X",
"#X#X#X#X#X#X#X#X#X#X#X#X#X#X#X#X#X#XE.E.OXoXoXoXoXoX/.I.#X#X#X#X#X#X#X#X#X#X#X#X#X#X#X#X#X#X#X#X#X#X",
"#X#X#X#X#X#X#X#X#X#X#X#X#X#X#X#X#X#XE.E.OXoXoXoXoXoX/.I.#X#X#X#X#X#X#X#X#X#X#X#X#X#X#X#X#X#X#X#X#X#X",
"#X#X#X#X#X#X#X#X#X#X#X#X#X#XE.W.E.U.@X@XoXoXoXoXoXoX@X+XW.W.W.R.#X#X#X#X#X#X#X#X#X#X#X#X#X#X#X#X#X#X",
"#X#X#X#X#X#X#X#X#X#X#X#X#X#XE.E.E.~.oXoXoXoXoXoXoXoXoX@XE.E.E.E.#X#X#X#X#X#X#X#X#X#X#X#X#X#X#X#X#X#X",
"#X#X#X#X#X#X#X#X#X#X#X#XT.Q.OX@X@XoXoXoXoXoXoXoXoXoXoXoX@X@X@X@XY.~.#X#X#X#X#X#X#X#X#X#X#X#X#X#X#X#X",
"#X#X#X#X#X#X#X#X#X#X#X#XH.J._.`.'.).{.{. X|.}.}.}.}.[.]._._.(.(.F.G.#X#X#X#X#X#X#X#X#X#X#X#X#X#X#X#X",
"#X#X#X#X#X#X#X#X#X#Xl.j.j v m H U J ~ ~ | } ^ / ( / T Y m M i i q p C.l.#X#X#X#X#X#X#X#X#X#X#X#X#X#X",
"#X#X#X#X#X#X#X#X#X#XZ.N.k b C S L R { { .. .^ { { [ Q I C C g g q d B.V.#X#X#X#X#X#X#X#X#X#X#X#X#X#X",
"#X#X#X#X#X#X#X#Xc.c.s a h b C S L R { { .. .^ { { [ Q I C C g g 0 6 4 4 d.k.#X#X#X#X#X#X#X#X#X#X#X#X",
"#X#X#X#X#X#X#X#Xv.v.q 9 x b C S L R { { .. .^ { { [ Q I C C g g 0 5 > > p.l.#X#X#X#X#X#X#X#X#X#X#X#X",
"#X#X#X#X#X#X#X#Xv.v.q 9 x b C S L R { { .. .^ { { [ Q I C C g g 0 5 > > p.l.#X#X#X#X#X#X#X#X#X#X#X#X",
"#X#X#X#X#X#X#X#Xv.v.q 9 x b C S L R { { .. .^ { { [ Q I C C g g 0 5 > > p.l.#X#X#X#X#X#X#X#X#X#X#X#X",
"#X#X#X#X#X#X#X#Xv.v.q 9 x b C S L R { { .. .^ { { [ Q I C C g g 0 5 > > p.l.#X#X#X#X#X#X#X#X#X#X#X#X",
"#X#X#X#X#X#X#X#Xv.v.q 9 x b C S L R { { ....^ { { [ Q I C C g g 0 5 > > p.l.#X#X#X#X#X#X#X#X#X#X#X#X",
"#X#X#X#X#X#X#X#Xv.v.q 9 x b C Z A D ! ! K E W R R I G S C C g g 0 5 > > p.l.#X#X#X#X#X#X#X#X#X#X#X#X",
"#X#X#X#X#X#X#X#Xv.v.q 9 x b N N C V ! ! P L L L L L F C N N g g 9 5 > > s.l.#X#X#X#X#X#X#X#X#X#X#X#X",
"#X#X#X#X#X#X#X#Xv.v.q 9 x g g g N B ! ! C S S S S S C C g g x f 0 5 > > p.l.#X#X#X#X#X#X#X#X#X#X#X#X",
"#X#X#X#X#X#X#X#Xv.v.q 9 x g g g N C ! ! C C C C C C C C g g g g 0 5 > > s.l.#X#X#X#X#X#X#X#X#X#X#X#X",
"#X#X#X#X#X#X#X#Xv.v.1 3 e y g g b b n n b b b b b b b b g l w r 0 5 > > a.l.#X#X#X#X#X#X#X#X#X#X#X#X",
"#X#X#X#X#X#X#X#Xl.v.; - 8 t v v v v v v v v v v v v v v c z 9 9 9 5 > > p.l.#X#X#X#X#X#X#X#X#X#X#X#X",
"#X#X#X#X#X#X#X#X#X#Xm.x.u 9 9 9 9 9 9 9 9 9 9 9 9 9 9 9 9 9 9 9 > > > > p.l.#X#X#X#X#X#X#X#X#X#X#X#X",
"#X#X#X#X#X#X#X#X#X#Xn.x.7 8 8 8 8 8 8 8 8 8 8 8 8 8 8 8 8 8 8 8 > > > > p.l.#X#X#X#X#X#X#X#X#X#X#X#X",
"#X#X#X#X#X#X#X#X#X#Xn.S.2 ; ; ; ; ; ; ; ; ; ; ; ; ; ; ; ; ; ; ; > : * * i.l.#X#X#X#X#X#X#X#X#X#X#X#X",
"#X#X#X#X#X#X#X#X#X#Xh.g.= 2 < 2 2 < 2 < < 2 < < 2 < < < 2 < < 2 < , * * i.l.#X#X#X#X#X#X#X#X#X#X#X#X",
"#X#X#X#X#X#X#X#X#X#X#X#Xz.v.v.v.v.v.v.v.v.v.v.v.v.v.v.v.v.v.v.v.v.v.v.v.#X#X#X#X#X#X#X#X#X#X#X#X#X#X",
"#X#X#X#X#X#X#X#X#X#X#X#XM.f.f.f.f.f.f.f.f.f.f.f.f.f.f.f.f.f.f.f.f.f.f.f.#X#X#X#X#X#X#X#X#X#X#X#X#X#X",
"#X#X#X#X#X#X#X#X#X#X#X#X#X#X#X#X#X#X#X#X#X#X#X#X#X#X#X#X#X#X#X#X#X#X#X#X#X#X#X#X#X#X#X#X#X#X#X#X#X#X",
"#X#X#X#X#X#X#X#X#X#X#X#X#X#X#X#X#X#X#X#X#X#X#X#X#X#X#X#X#X#X#X#X#X#X#X#X#X#X#X#X#X#X#X#X#X#X#X#X#X#X",
"#X#X#X#X#X#X#X#X#X#X#X#X#X#X#X#X#X#X#X#X#X#X#X#X#X#X#X#X#X#X#X#X#X#X#X#X#X#X#X#X#X#X#X#X#X#X#X#X#X#X",
"#X#X#X#X#X#X#X#X#X#X#X#X#X#X#X#X#X#X#X#X#X#X#X#X#X#X#X#X#X#X#X#X#X#X#X#X#X#X#X#X#X#X#X#X#X#X#X#X#X#X",
"#X#X#X#X#X#X#X#X#X#X#X#X#X#X#X#X#X#X#X#X#X#X#X#X#X#X#X#X#X#X#X#X#X#X#X#X#X#X#X#X#X#X#X#X#X#X#X#X#X#X",
"#X#X#X#X#X#X#X#X#X#X#X#X#X#X#X#X#X#X#X#X#X#X#X#X#X#X#X#X#X#X#X#X#X#X#X#X#X#X#X#X#X#X#X#X#X#X#X#X#X#X"
};
