/* XPM */
static char *result[] = {
/* columns rows colors chars-per-pixel */
"50 50 5 1",
"  c None",
"a c #242b33",
"b c #a0fcd8",
"c c #10d3c3",
"d c #1498dc",
"      aaaaaaaaaaaaaaaaaaaaaaaaaaaaaaaaaaaaaa      ",
"      aaaaaaaaaaaaaaaaaaaaaaaaaaaaaaaaaaaaaa      ",
"      aaaaaaaaaaaaaaaaaaaaaaaaaaaaaaaaaaaaaa      ",
"   aaabbbbbbbbbbbbbbbbbbbbbbbbbbbbbbbbbbbbbbaaa   ",
"   aaabbbbbbbbbbbbbbbbbbbbbbbbbbbbbbbbbbbbbbaaa   ",
"   aaabbbbbbbbbbbbbbbbbbbbbbbbbbbbbbbbbbbbbbaaa   ",
"aaabbbbbbbbbccccbbbbbbbbbccccccccccccbbbbbbbbbbaaa",
"aaabbbbbbbbbccccbbbbbbbbbccccccccccccbbbbbbbbbbaaa",
"aaabbbbbbbbbccccbbbbbbbbbccccccccccccbbbbbbbbbbaaa",
"aaabbbbbbcccccccbbbbbbbbbccccccccccccccccbbbbbbaaa",
"aaabbbbbbcccccccbbbbbbbbbccccccccccccccccbbbbbbaaa",
"aaabbbbbbcccccccbbbbbbbbbccccccccccccccccbbbbbbaaa",
"aaabbbccccccccccbbbbbbbbbcccbbbbbbccccccccccbbbaaa",
"aaabbbccccccccccbbbbbbbbbcccbbbbbbccccccccccbbbaaa",
"aaabbbccccccccccbbbbbbbbbcccbbbbbbccccccccccbbbaaa",
"aaabbbccccccccccbbbbbbbbbcccbbbbbbccccccccccbbbaaa",
"aaabbbcccbbbccccccccccccccccbbbbbbccccccccccbbbaaa",
"aaabbbcccbbbccccccccccccccccbbbbbbccccccccccbbbaaa",
"aaabbbcccbbbccccccccccccccccbbbbbbccccccccccbbbaaa",
"aaabbbccccccccccccccccccccccccccccccccccccccbbbaaa",
"aaabbbccccccccccccccccccccccccccccccccccccccbbbaaa",
"aaabbbccccccccccccccccccccccccccccccccccccccbbbaaa",
"aaabbbccccccdddddddccccccccccccccccccbbbbcccbbbaaa",
"aaabbbccccccdddddddccccccccccccccccccbbbbcccbbbaaa",
"aaabbbccccccdddddddccccccccccccccccccbbbbcccbbbaaa",
"aaadddccccccdddddddcccbbbbbbccccccccccccccccdddaaa",
"aaadddccccccdddddddcccbbbbbbccccccccccccccccdddaaa",
"aaadddccccccdddddddcccbbbbbbccccccccccccccccdddaaa",
"aaadddccccccccccccccccbbbbbbccccccccccccccccdddaaa",
"aaadddccccccccccccccccbbbbbbccccccccccccccccdddaaa",
"aaadddccccccccccccccccbbbbbbccccccccccccccccdddaaa",
"aaadddcccdddcccccccccccccccccccccccccccccddddddaaa",
"aaadddcccdddcccccccccccccccccccccccccccccddddddaaa",
"aaadddcccdddcccccccccccccccccccccccccccccddddddaaa",
"aaadddccccccccccccccccccccccddddddccccccccccdddaaa",
"aaadddccccccccccccccccccccccddddddccccccccccdddaaa",
"aaadddccccccccccccccccccccccddddddccccccccccdddaaa",
"aaadddccccccdddddddcccccccccddddddcccddddcccdddaaa",
"aaadddccccccdddddddcccccccccddddddcccddddcccdddaaa",
"aaadddccccccdddddddcccccccccddddddcccddddcccdddaaa",
"aaadddccccccdddddddcccccccccddddddcccddddcccdddaaa",
"aaadddccccccdddddddcccccccccccccccccccccccccdddaaa",
"aaadddccccccdddddddcccccccccccccccccccccccccdddaaa",
"aaadddccccccdddddddcccccccccccccccccccccccccdddaaa",
"   aaaddddddddddddddddddddddddddddddddddddddaaa   ",
"   aaaddddddddddddddddddddddddddddddddddddddaaa   ",
"   aaaddddddddddddddddddddddddddddddddddddddaaa   ",
"      aaaaaaaaaaaaaaaaaaaaaaaaaaaaaaaaaaaaaa      ",
"      aaaaaaaaaaaaaaaaaaaaaaaaaaaaaaaaaaaaaa      ",
"      aaaaaaaaaaaaaaaaaaaaaaaaaaaaaaaaaaaaaa      "
};