/* XPM */
static char *result[] = {
/* columns rows colors chars-per-pixel */
"50 50 5 1 ",
"  c #505670",
". c #636B85",
"X c #838BA9",
"o c #9BA3BE",
"O c #C4CADE",
/* pixels */
"                                                  ",
"                                                  ",
"..XXXXXXooooooooXXXoXXXXXXXXXXXXXXXXXXXXXXXXXXX.  ",
"XXXXXXXXXXXXXXXXXXXXXXXXXXXXXXXXXXXXXXXXXXXXXXXX  ",
"XXXXXXXXXXXXXXXXXXXXXXXXXXXXXXXXXXXXXXXXXXXXXXXX  ",
"XXXXXXXXXXXXXXXXXXXXXXXXXXXXXXX..X........XXX     ",
"XXXXXXXXXXXXXXXXXXXXXXXXXXXXXXXXXoXXoooooXXXXXX.  ",
"XXXXXXXXXXXXXXXXXXXXXXXXXXXXXXXXXoXXoooooXXXXXX.  ",
"XXXXXXXXXXXXXXXXXXXXXXXXXXXXXXXXXXXXXXXXXXXXXXXX  ",
"XXXXXXXXXXXXXXXXXXXXXXXXXXXXXXXXXXXXXXXXXXXXXXXX  ",
"XXXXXXXXXXXXXXXXXXXXXXXXXXXXXXXXXXXXXXXXXXXXXXXX  ",
"..XXXXXXXXXXXXXXXXXXXXXXXXXXXXXXXXXXXXXXXXXXXXX.  ",
"                                                  ",
"                                                  ",
"oooooXXXXXXXXXXXXXXXXX.  ..XXXXooXooooooooXXXXXXXX",
"oooooXXXXXXXXXXXXXXXXX.  ..XXXXooXooooooooXXXXXXXX",
"XXXXXXXXXXXXXXXXXXXXXXX  XXXXXXXXXXXXXXXXXXXXXXXXX",
"XXXXXXXXXXX...XX.XXX     XXXXXXXXXXXXXXXXXXXXXXXXX",
"XXXXXXXXXXX...XX.XXX     XXXXXXXXXXXXXXXXXXXXXXXXX",
"XXXXXXXXXooXooooXXXXXX.  XXXXXXXXXXXXXXXXXXXXXXXXX",
"XXXXXXXXXXXXXXXXXXXXXXX  XXXXXXXXXXXXXXXXXXXXXXXXX",
"XXXXXXXXXXXXXXXXXXXXXXX  XXXXXXXXXXXXXXXXXXXXXXXXX",
"XXXXXXXXXXXXXXXXXXXXXXX  XXXXXXXXXXXXXXXXXXXXXXXXX",
"XXXXXXXXXXXXXXXXXXXXXX.  ..XXXXXXXXXXXXXXXXXXXXXXX",
"XXXXXXXXXXXXXXXXXXXXXX.  ..XXXXXXXXXXXXXXXXXXXXXXX",
"                                                  ",
"                                                  ",
"..XXXXooXoooOOOOOooXoooXXXXXXXXXXXXXXXXXXXXXXXX.  ",
"XXXXXXXXXXXXXXXXXXXXXXXXXXXXXXXXXXXXXXXXXXXXXXXX  ",
"XXXXXXXXXXXXXXXXXXXXXXXXXXXXXXXXXXXXXXXXXXXXXXXX  ",
"XXXXXXXXXXXXXXXXXXXXXXXXXXXXXXXXXXXXXXXXXXXXXXXX  ",
"XXXXXXXXXXXXXXXXXXXXXXXXXXXXXXXXXXXXXXXXXXXXXXX.  ",
"XXXXXXXXXXXXXXXXXXXXXXXXXXXXXXXXXXXXXXXXXXXXXXX.  ",
"XXXXXXXXXXXXXXXXXXXXXXXXXXXXXXXXXX...XX..X        ",
"XXXXXXXXXXXXXXXXXXXXXXXXXXXXXXXXXXXXXooXXoooXXXX  ",
"XXXXXXXXXXXXXXXXXXXXXXXXXXXXXXXXXXXXXooXXoooXXXX  ",
"..XXXXXXXXXXXXXXXXXXXXXXXXXXXXXXXXXXXXXXXXXXXXX.  ",
"                                                  ",
"                                                  ",
"XXXXXXXXXXXXXXXXXXXXXX.  ..XXXXooXoooooOOOOOoooXXX",
"XXXXXXXXXXXXXXXXXXXXXX.  ..XXXXooXoooooOOOOOoooXXX",
"XXXXXXXXXXXXXXXXXXXXXXX  XXXXXXXXXXXXXXXXXXXXXXXXX",
"XXXXXX.....XXX..XXX      XXXXXXXXXXXXXXXXXXXXXXXXX",
"XXXXXX.....XXX..XXX      XXXXXXXXXXXXXXXXXXXXXXXXX",
"XXXXXXXXoXXXXXoooXXoXX.  XXXXXXXXXXXXXXXXXXXXXXXXX",
"XXXXXXXXXXXXXXXXXXXXXXX  XXXXXXXXXXXXXXXXXXXXXXXXX",
"XXXXXXXXXXXXXXXXXXXXXXX  XXXXXXXXXXXXXXXXXXXXXXXXX",
"XXXXXXXXXXXXXXXXXXXXXXX  XXXXXXXXXXXXXXXXXXXXXXXXX",
"XXXXXXXXXXXXXXXXXXXXXX.  ..XXXXXXXXXXXXXXXXXXXXXXX",
"XXXXXXXXXXXXXXXXXXXXXX.  ..XXXXXXXXXXXXXXXXXXXXXXX"
};
