/* XPM */
static char *result[] = {
/* columns rows colors chars-per-pixel */
"50 50 7 1",
"  c None",
"a c #231c19",
"b c #03991f",
"c c #0a7030",
"d c #14462d",
"e c #95d836",
"f c #4dbd27",
"                                                  ",
"                                                  ",
"                                                  ",
"                                                  ",
"                                                  ",
"                                                  ",
"            aaaaaaa                               ",
"            aaaaaaa                               ",
"            aaaaaaa                               ",
"         aaabbbbbbbaaa                            ",
"         aaabbbbbbbaaa                            ",
"         aaabbbbbbbaaa                            ",
"      aaabbbccccccccccaaa   aaaaaaaaa             ",
"      aaabbbccccccccccaaa   aaaaaaaaa             ",
"      aaabbbccccccccccaaa   aaaaaaaaa             ",
"      aaabbbccccccccccaaa   aaaaaaaaa             ",
"         aaaaaaaaaaaaaaaaaaaccccccdddaaaa         ",
"         aaaaaaaaaaaaaaaaaaaccccccdddaaaa         ",
"         aaaaaaaaaaaaaaaaaaaccccccdddaaaa         ",
"                   aaaaaaaaaaaaaaaaaa             ",
"                   aaaaaaaaaaaaaaaaaa             ",
"                   aaaaaaaaaaaaaaaaaa             ",
"                aaaeeebbbbbbeeeaaa                ",
"                aaaeeebbbbbbeeeaaa                ",
"                aaaeeebbbbbbeeeaaa                ",
"            aaaaeeefffeeeeeefffeeeaaa             ",
"            aaaaeeefffeeeeeefffeeeaaa             ",
"            aaaaeeefffeeeeeefffeeeaaa             ",
"         aaaeeeeffffffeeeeeeffffffeeeaaaa         ",
"         aaaeeeeffffffeeeeeeffffffeeeaaaa         ",
"         aaaeeeeffffffeeeeeeffffffeeeaaaa         ",
"         aaaeeeeeeefffffffffbbbfffeeeaaaa         ",
"         aaaeeeeeeefffffffffbbbfffeeeaaaa         ",
"         aaaeeeeeeefffffffffbbbfffeeeaaaa         ",
"         aaabbbbfffbbbbbbfffffffffbbbaaaa         ",
"         aaabbbbfffbbbbbbfffffffffbbbaaaa         ",
"         aaabbbbfffbbbbbbfffffffffbbbaaaa         ",
"            aaaabbbbbbbbbffffffbbbaaa             ",
"            aaaabbbbbbbbbffffffbbbaaa             ",
"            aaaabbbbbbbbbffffffbbbaaa             ",
"            aaaabbbbbbbbbffffffbbbaaa             ",
"                aaabbbbbbbbbbbbaaa                ",
"                aaabbbbbbbbbbbbaaa                ",
"                aaabbbbbbbbbbbbaaa                ",
"                   aaaaaaaaaaaa                   ",
"                   aaaaaaaaaaaa                   ",
"                   aaaaaaaaaaaa                   ",
"                                                  ",
"                                                  ",
"                                                  "
};